<svg width="32" height="32" viewBox="0 0 32 32" fill="none" xmlns="http://www.w3.org/2000/svg">
  <defs>
    <!-- 主要渐变 -->
    <linearGradient id="mainGradient" x1="0%" y1="0%" x2="100%" y2="100%">
      <stop offset="0%" style="stop-color:#3B82F6;stop-opacity:1" />
      <stop offset="100%" style="stop-color:#8B5CF6;stop-opacity:1" />
    </linearGradient>
    
    <!-- AI渐变 -->
    <linearGradient id="aiGradient" x1="0%" y1="0%" x2="100%" y2="100%">
      <stop offset="0%" style="stop-color:#06B6D4;stop-opacity:1" />
      <stop offset="100%" style="stop-color:#3B82F6;stop-opacity:1" />
    </linearGradient>
  </defs>
  
  <!-- 主背景 -->
  <circle cx="16" cy="16" r="15" fill="url(#mainGradient)" opacity="0.95"/>
  
  <!-- 神经网络节点 -->
  <g opacity="0.8">
    <circle cx="8" cy="12" r="1" fill="url(#aiGradient)"/>
    <circle cx="8" cy="20" r="1" fill="url(#aiGradient)"/>
    <circle cx="16" cy="8" r="1.5" fill="url(#aiGradient)"/>
    <circle cx="16" cy="24" r="1.5" fill="url(#aiGradient)"/>
    <circle cx="24" cy="16" r="1" fill="url(#aiGradient)"/>
    
    <!-- 连接线 -->
    <g stroke="url(#aiGradient)" stroke-width="0.5" opacity="0.6">
      <line x1="9" y1="12" x2="15" y2="8"/>
      <line x1="9" y1="20" x2="15" y2="24"/>
      <line x1="17" y1="8" x2="23" y2="16"/>
      <line x1="17" y1="24" x2="23" y2="16"/>
    </g>
  </g>
  
  <!-- 抽象AI标识 -->
  <g transform="translate(16, 16)">
    <!-- 抽象的A -->
    <path d="M -3 2 L -2 -2 L -1 -2 L 0 2 L -1 2 L -1.5 0.5 L -2.5 0.5 Z" fill="white" opacity="0.95"/>
    
    <!-- 抽象的I -->
    <g transform="translate(2, 0)">
      <path d="M -0.5 -2 L 0.5 -2 L 0.75 -1.5 L 0.75 1.5 L 0.5 2 L -0.5 2 L -0.75 1.5 L -0.75 -1.5 Z" fill="white" opacity="0.95"/>
      <circle cx="0" cy="-1" r="0.25" fill="url(#aiGradient)" opacity="0.8"/>
      <circle cx="0" cy="0" r="0.25" fill="url(#aiGradient)" opacity="0.8"/>
      <circle cx="0" cy="1" r="0.25" fill="url(#aiGradient)" opacity="0.8"/>
    </g>
    
    <!-- 连接线 -->
    <path d="M -1.5 0 L 1.5 0" stroke="url(#aiGradient)" stroke-width="0.3" opacity="0.6"/>
  </g>
  
  <!-- 装饰圆环 -->
  <circle cx="16" cy="16" r="14" fill="none" stroke="white" stroke-width="0.3" opacity="0.3" stroke-dasharray="2,2"/>
</svg> 