<svg width="64" height="64" viewBox="0 0 64 64" fill="none" xmlns="http://www.w3.org/2000/svg">
  <defs>
    <!-- 主要渐变 -->
    <linearGradient id="mainGradient" x1="0%" y1="0%" x2="100%" y2="100%">
      <stop offset="0%" style="stop-color:#3B82F6;stop-opacity:1" />
      <stop offset="100%" style="stop-color:#8B5CF6;stop-opacity:1" />
    </linearGradient>
    
    <!-- AI渐变 -->
    <linearGradient id="aiGradient" x1="0%" y1="0%" x2="100%" y2="100%">
      <stop offset="0%" style="stop-color:#06B6D4;stop-opacity:1" />
      <stop offset="100%" style="stop-color:#3B82F6;stop-opacity:1" />
    </linearGradient>
    
    <!-- 发光效果 -->
    <filter id="glow">
      <feGaussianBlur stdDeviation="2" result="coloredBlur"/>
      <feMerge> 
        <feMergeNode in="coloredBlur"/>
        <feMergeNode in="SourceGraphic"/>
      </feMerge>
    </filter>
  </defs>
  
  <!-- 主背景 -->
  <circle cx="32" cy="32" r="30" fill="url(#mainGradient)" opacity="0.95"/>
  
  <!-- AI神经网络简化版 -->
  <g opacity="0.8">
    <!-- 节点 -->
    <circle cx="15" cy="20" r="2" fill="url(#aiGradient)" filter="url(#glow)"/>
    <circle cx="15" cy="32" r="2" fill="url(#aiGradient)" filter="url(#glow)"/>
    <circle cx="15" cy="44" r="2" fill="url(#aiGradient)" filter="url(#glow)"/>
    
    <circle cx="32" cy="15" r="2.5" fill="url(#aiGradient)" filter="url(#glow)"/>
    <circle cx="32" cy="32" r="2.5" fill="url(#aiGradient)" filter="url(#glow)"/>
    <circle cx="32" cy="49" r="2.5" fill="url(#aiGradient)" filter="url(#glow)"/>
    
    <circle cx="49" cy="25" r="2" fill="url(#aiGradient)" filter="url(#glow)"/>
    <circle cx="49" cy="39" r="2" fill="url(#aiGradient)" filter="url(#glow)"/>
    
    <!-- 连接线 -->
    <g stroke="url(#aiGradient)" stroke-width="1" opacity="0.6">
      <line x1="17" y1="20" x2="30" y2="15"/>
      <line x1="17" y1="32" x2="30" y2="32"/>
      <line x1="17" y1="44" x2="30" y2="49"/>
      <line x1="34" y1="15" x2="47" y2="25"/>
      <line x1="34" y1="49" x2="47" y2="39"/>
    </g>
  </g>
  
  <!-- 量化图表 -->
  <g opacity="0.9">
    <rect x="52" y="12" width="2" height="8" fill="#F59E0B"/>
    <rect x="55" y="15" width="2" height="6" fill="#EF4444"/>
    <rect x="58" y="10" width="2" height="10" fill="#F59E0B"/>
  </g>
  
  <!-- 抽象AI标识 -->
  <g transform="translate(32, 32)">
    <!-- 抽象的A形状 -->
    <path d="M -6 4 L -4 -4 L -2 -4 L 0 4 L -2 4 L -3 1 L -5 1 Z" fill="white" opacity="0.95"/>
    
    <!-- 抽象的I形状 -->
    <g transform="translate(4, 0)">
      <path d="M -1 -4 L 1 -4 L 1.5 -3 L 1.5 3 L 1 4 L -1 4 L -1.5 3 L -1.5 -3 Z" fill="white" opacity="0.95"/>
      <circle cx="0" cy="-2" r="0.5" fill="url(#aiGradient)" opacity="0.8"/>
      <circle cx="0" cy="0" r="0.5" fill="url(#aiGradient)" opacity="0.8"/>
      <circle cx="0" cy="2" r="0.5" fill="url(#aiGradient)" opacity="0.8"/>
    </g>
    
    <!-- 连接线 -->
    <path d="M -3 0 L 3 0" stroke="url(#aiGradient)" stroke-width="0.5" opacity="0.6"/>
  </g>
  
  <!-- 装饰圆环 -->
  <circle cx="32" cy="32" r="28" fill="none" stroke="white" stroke-width="0.5" opacity="0.3" stroke-dasharray="3,3">
    <animateTransform attributeName="transform" type="rotate" values="0 32 32;360 32 32" dur="15s" repeatCount="indefinite"/>
  </circle>
</svg> 